<mxfile modified="2022-05-20T01:27:29.179Z" host="app.diagrams.net" agent="5.0 (Windows NT 10.0; Win64; x64) AppleWebKit/537.36 (KHTML, like Gecko) Chrome/101.0.4951.54 Safari/537.36" etag="K2pKDzl5SVd0OFZhEb5d" compressed="false" version="18.0.8" type="google">
  <diagram id="HJfoUNQLnEb1KD6qa57p" name="Functionality/System Logical Module/Groups">
    <mxGraphModel grid="1" page="1" gridSize="10" guides="1" tooltips="1" connect="1" arrows="1" fold="1" pageScale="1" pageWidth="827" pageHeight="1169" math="0" shadow="0">
      <root>
        <mxCell id="_w6SPuIURd889Ef91Aiz-0" />
        <mxCell id="_w6SPuIURd889Ef91Aiz-1" value="Diagam/Use Cases" parent="_w6SPuIURd889Ef91Aiz-0" />
        <mxCell id="t9QLq7hpC-iTrWqiHKKD-0" value="Base Logical Module" style="rounded=0;whiteSpace=wrap;html=1;fontSize=12;verticalAlign=top;dashed=1;fillColor=none;" vertex="1" parent="_w6SPuIURd889Ef91Aiz-1">
          <mxGeometry x="120" y="160" width="500" height="380" as="geometry" />
        </mxCell>
        <mxCell id="h5bzv7IjYgSjeoM2qOOH-13" style="rounded=0;orthogonalLoop=1;jettySize=auto;html=1;entryX=1;entryY=0.5;entryDx=0;entryDy=0;startArrow=none;startFill=0;endArrow=none;endFill=0;strokeColor=#000000;fontSize=12;fontColor=#808080;strokeWidth=1;" edge="1" parent="_w6SPuIURd889Ef91Aiz-1" target="k-Y4H1nmRuhjar9aNCdx-2">
          <mxGeometry relative="1" as="geometry">
            <mxPoint x="340" y="360" as="sourcePoint" />
          </mxGeometry>
        </mxCell>
        <mxCell id="k-Y4H1nmRuhjar9aNCdx-1" value="User" style="shape=umlActor;verticalLabelPosition=bottom;labelBackgroundColor=#ffffff;verticalAlign=top;html=1;shadow=0;glass=0;comic=0;strokeColor=#B3B3B3;strokeWidth=1;fillColor=none;fontSize=12;fontColor=#000000;align=center;" vertex="1" parent="_w6SPuIURd889Ef91Aiz-1">
          <mxGeometry x="350" y="340" width="20" height="40" as="geometry" />
        </mxCell>
        <mxCell id="k-Y4H1nmRuhjar9aNCdx-2" value="Manage &lt;br style=&quot;font-size: 12px;&quot;&gt;Error Messages" style="ellipse;whiteSpace=wrap;html=1;shadow=0;glass=0;comic=0;strokeColor=#d6b656;strokeWidth=1;fillColor=#fff2cc;fontSize=12;align=center;" vertex="1" parent="_w6SPuIURd889Ef91Aiz-1">
          <mxGeometry x="140" y="240" width="80" height="40" as="geometry" />
        </mxCell>
        <mxCell id="h5bzv7IjYgSjeoM2qOOH-0" value="Manage Sys Sponsor Information" style="ellipse;whiteSpace=wrap;html=1;shadow=0;glass=0;comic=0;strokeColor=#d6b656;strokeWidth=1;fillColor=#fff2cc;fontSize=12;align=center;" vertex="1" parent="_w6SPuIURd889Ef91Aiz-1">
          <mxGeometry x="140" y="290" width="80" height="40" as="geometry" />
        </mxCell>
        <mxCell id="h5bzv7IjYgSjeoM2qOOH-1" value="Manage Sys Hoster Information" style="ellipse;whiteSpace=wrap;html=1;shadow=0;glass=0;comic=0;strokeColor=#d6b656;strokeWidth=1;fillColor=#fff2cc;fontSize=12;align=center;" vertex="1" parent="_w6SPuIURd889Ef91Aiz-1">
          <mxGeometry x="140" y="340" width="80" height="40" as="geometry" />
        </mxCell>
        <mxCell id="h5bzv7IjYgSjeoM2qOOH-2" value="Manage Tenants" style="ellipse;whiteSpace=wrap;html=1;shadow=0;glass=0;comic=0;strokeColor=#d6b656;strokeWidth=1;fillColor=#fff2cc;fontSize=12;align=center;" vertex="1" parent="_w6SPuIURd889Ef91Aiz-1">
          <mxGeometry x="140" y="390" width="80" height="40" as="geometry" />
        </mxCell>
        <mxCell id="h5bzv7IjYgSjeoM2qOOH-3" value="Manage Sys Settings" style="ellipse;whiteSpace=wrap;html=1;shadow=0;glass=0;comic=0;strokeColor=#d6b656;strokeWidth=1;fillColor=#fff2cc;fontSize=12;align=center;" vertex="1" parent="_w6SPuIURd889Ef91Aiz-1">
          <mxGeometry x="140" y="440" width="80" height="40" as="geometry" />
        </mxCell>
        <mxCell id="h5bzv7IjYgSjeoM2qOOH-4" value="Manage Tenancy Members" style="ellipse;whiteSpace=wrap;html=1;shadow=0;glass=0;comic=0;strokeColor=#82b366;strokeWidth=1;fillColor=#d5e8d4;fontSize=12;align=center;" vertex="1" parent="_w6SPuIURd889Ef91Aiz-1">
          <mxGeometry x="140" y="490" width="80" height="40" as="geometry" />
        </mxCell>
        <mxCell id="h5bzv7IjYgSjeoM2qOOH-11" value="Search" style="ellipse;whiteSpace=wrap;html=1;shadow=0;glass=0;comic=0;strokeColor=#82b366;strokeWidth=1;fillColor=#d5e8d4;fontSize=12;align=center;" vertex="1" parent="_w6SPuIURd889Ef91Aiz-1">
          <mxGeometry x="500" y="490.10003662109375" width="80" height="40" as="geometry" />
        </mxCell>
        <mxCell id="h5bzv7IjYgSjeoM2qOOH-14" style="rounded=0;orthogonalLoop=1;jettySize=auto;html=1;entryX=1;entryY=0.5;entryDx=0;entryDy=0;startArrow=none;startFill=0;endArrow=none;endFill=0;strokeColor=#000000;fontSize=12;fontColor=#808080;strokeWidth=1;" edge="1" parent="_w6SPuIURd889Ef91Aiz-1" target="h5bzv7IjYgSjeoM2qOOH-0">
          <mxGeometry relative="1" as="geometry">
            <mxPoint x="340" y="360" as="sourcePoint" />
            <mxPoint x="230" y="290" as="targetPoint" />
          </mxGeometry>
        </mxCell>
        <mxCell id="h5bzv7IjYgSjeoM2qOOH-15" style="rounded=0;orthogonalLoop=1;jettySize=auto;html=1;entryX=1;entryY=0.5;entryDx=0;entryDy=0;startArrow=none;startFill=0;endArrow=none;endFill=0;strokeColor=#000000;fontSize=12;fontColor=#808080;strokeWidth=1;" edge="1" parent="_w6SPuIURd889Ef91Aiz-1" target="h5bzv7IjYgSjeoM2qOOH-1">
          <mxGeometry relative="1" as="geometry">
            <mxPoint x="340" y="360" as="sourcePoint" />
            <mxPoint x="240" y="300" as="targetPoint" />
          </mxGeometry>
        </mxCell>
        <mxCell id="h5bzv7IjYgSjeoM2qOOH-16" style="rounded=0;orthogonalLoop=1;jettySize=auto;html=1;entryX=1;entryY=0.5;entryDx=0;entryDy=0;startArrow=none;startFill=0;endArrow=none;endFill=0;strokeColor=#000000;fontSize=12;fontColor=#808080;strokeWidth=1;" edge="1" parent="_w6SPuIURd889Ef91Aiz-1" target="h5bzv7IjYgSjeoM2qOOH-2">
          <mxGeometry relative="1" as="geometry">
            <mxPoint x="340" y="360" as="sourcePoint" />
            <mxPoint x="230" y="370" as="targetPoint" />
          </mxGeometry>
        </mxCell>
        <mxCell id="h5bzv7IjYgSjeoM2qOOH-17" style="rounded=0;orthogonalLoop=1;jettySize=auto;html=1;entryX=1;entryY=0.5;entryDx=0;entryDy=0;startArrow=none;startFill=0;endArrow=none;endFill=0;strokeColor=#000000;fontSize=12;fontColor=#808080;strokeWidth=1;" edge="1" parent="_w6SPuIURd889Ef91Aiz-1" target="h5bzv7IjYgSjeoM2qOOH-3">
          <mxGeometry relative="1" as="geometry">
            <mxPoint x="340" y="360" as="sourcePoint" />
            <mxPoint x="230" y="410" as="targetPoint" />
          </mxGeometry>
        </mxCell>
        <mxCell id="h5bzv7IjYgSjeoM2qOOH-18" style="rounded=0;orthogonalLoop=1;jettySize=auto;html=1;entryX=1;entryY=0.5;entryDx=0;entryDy=0;startArrow=none;startFill=0;endArrow=none;endFill=0;strokeColor=#000000;fontSize=12;fontColor=#808080;strokeWidth=1;" edge="1" parent="_w6SPuIURd889Ef91Aiz-1" target="h5bzv7IjYgSjeoM2qOOH-4">
          <mxGeometry relative="1" as="geometry">
            <mxPoint x="340" y="360" as="sourcePoint" />
            <mxPoint x="230" y="450" as="targetPoint" />
          </mxGeometry>
        </mxCell>
        <mxCell id="h5bzv7IjYgSjeoM2qOOH-24" style="rounded=0;orthogonalLoop=1;jettySize=auto;html=1;startArrow=none;startFill=0;endArrow=none;endFill=0;strokeColor=#000000;fontSize=12;fontColor=#808080;exitX=0;exitY=0.5;exitDx=0;exitDy=0;strokeWidth=1;" edge="1" parent="_w6SPuIURd889Ef91Aiz-1" source="h5bzv7IjYgSjeoM2qOOH-11">
          <mxGeometry relative="1" as="geometry">
            <mxPoint x="510" y="450.10003662109375" as="sourcePoint" />
            <mxPoint x="380" y="360" as="targetPoint" />
          </mxGeometry>
        </mxCell>
        <mxCell id="FTWUN79fhP8DBFRY1KGM-0" value="Manage Request Origin Countries" style="ellipse;whiteSpace=wrap;html=1;shadow=0;glass=0;comic=0;strokeColor=#d6b656;strokeWidth=1;fillColor=#fff2cc;fontSize=12;align=center;" vertex="1" parent="_w6SPuIURd889Ef91Aiz-1">
          <mxGeometry x="260" y="190" width="80" height="40" as="geometry" />
        </mxCell>
        <mxCell id="FTWUN79fhP8DBFRY1KGM-1" value="Manage Statements" style="ellipse;whiteSpace=wrap;html=1;shadow=0;glass=0;comic=0;strokeColor=#d6b656;strokeWidth=1;fillColor=#fff2cc;fontSize=12;align=center;" vertex="1" parent="_w6SPuIURd889Ef91Aiz-1">
          <mxGeometry x="380" y="190" width="80" height="40" as="geometry" />
        </mxCell>
        <mxCell id="FTWUN79fhP8DBFRY1KGM-2" style="rounded=0;orthogonalLoop=1;jettySize=auto;html=1;entryX=0.5;entryY=1;entryDx=0;entryDy=0;startArrow=none;startFill=0;endArrow=none;endFill=0;strokeColor=#000000;fontSize=12;fontColor=#808080;strokeWidth=1;" edge="1" parent="_w6SPuIURd889Ef91Aiz-1" target="FTWUN79fhP8DBFRY1KGM-0">
          <mxGeometry relative="1" as="geometry">
            <mxPoint x="340" y="360" as="sourcePoint" />
            <mxPoint x="230" y="290" as="targetPoint" />
          </mxGeometry>
        </mxCell>
        <mxCell id="FTWUN79fhP8DBFRY1KGM-3" style="rounded=0;orthogonalLoop=1;jettySize=auto;html=1;entryX=0.5;entryY=1;entryDx=0;entryDy=0;startArrow=none;startFill=0;endArrow=none;endFill=0;strokeColor=#000000;fontSize=12;fontColor=#808080;strokeWidth=1;" edge="1" parent="_w6SPuIURd889Ef91Aiz-1" target="FTWUN79fhP8DBFRY1KGM-1">
          <mxGeometry relative="1" as="geometry">
            <mxPoint x="380" y="360" as="sourcePoint" />
            <mxPoint x="310" y="270" as="targetPoint" />
          </mxGeometry>
        </mxCell>
        <mxCell id="FTWUN79fhP8DBFRY1KGM-4" value="Manage Diagnostics" style="ellipse;whiteSpace=wrap;html=1;shadow=0;glass=0;comic=0;strokeColor=#d6b656;strokeWidth=1;fillColor=#fff2cc;fontSize=12;align=center;" vertex="1" parent="_w6SPuIURd889Ef91Aiz-1">
          <mxGeometry x="140" y="190" width="80" height="40" as="geometry" />
        </mxCell>
        <mxCell id="FTWUN79fhP8DBFRY1KGM-5" value="Manage Tenancy Member Profiles" style="ellipse;whiteSpace=wrap;html=1;shadow=0;glass=0;comic=0;strokeColor=#82b366;strokeWidth=1;fillColor=#d5e8d4;fontSize=12;align=center;" vertex="1" parent="_w6SPuIURd889Ef91Aiz-1">
          <mxGeometry x="260" y="490" width="80" height="40" as="geometry" />
        </mxCell>
        <mxCell id="FTWUN79fhP8DBFRY1KGM-6" value="Manage Tenancy Member Security Profiles" style="ellipse;whiteSpace=wrap;html=1;shadow=0;glass=0;comic=0;strokeColor=#82b366;strokeWidth=1;fillColor=#d5e8d4;fontSize=12;align=center;" vertex="1" parent="_w6SPuIURd889Ef91Aiz-1">
          <mxGeometry x="380" y="490" width="80" height="40" as="geometry" />
        </mxCell>
        <mxCell id="FTWUN79fhP8DBFRY1KGM-7" style="rounded=0;orthogonalLoop=1;jettySize=auto;html=1;entryX=0.5;entryY=0;entryDx=0;entryDy=0;startArrow=none;startFill=0;endArrow=none;endFill=0;strokeColor=#000000;fontSize=12;fontColor=#808080;strokeWidth=1;" edge="1" parent="_w6SPuIURd889Ef91Aiz-1" target="FTWUN79fhP8DBFRY1KGM-5">
          <mxGeometry relative="1" as="geometry">
            <mxPoint x="340" y="360" as="sourcePoint" />
            <mxPoint x="230" y="490.0000000000001" as="targetPoint" />
          </mxGeometry>
        </mxCell>
        <mxCell id="FTWUN79fhP8DBFRY1KGM-8" style="rounded=0;orthogonalLoop=1;jettySize=auto;html=1;entryX=0.5;entryY=0;entryDx=0;entryDy=0;startArrow=none;startFill=0;endArrow=none;endFill=0;strokeColor=#000000;fontSize=12;fontColor=#808080;strokeWidth=1;" edge="1" parent="_w6SPuIURd889Ef91Aiz-1" target="FTWUN79fhP8DBFRY1KGM-6">
          <mxGeometry relative="1" as="geometry">
            <mxPoint x="380" y="360" as="sourcePoint" />
            <mxPoint x="310" y="470.0000000000001" as="targetPoint" />
          </mxGeometry>
        </mxCell>
        <mxCell id="Ku8i4R_OYWpHUvpAigGd-0" value="Title/Diagram" parent="_w6SPuIURd889Ef91Aiz-0" />
        <mxCell id="Ku8i4R_OYWpHUvpAigGd-1" value="&lt;font style=&quot;font-size: 12px&quot;&gt;Diagram: Base System Logical Module -&amp;nbsp;Functionality -&amp;nbsp;Functionality Groups - High Level&lt;/font&gt;" style="text;strokeColor=none;fillColor=none;html=1;fontSize=12;fontStyle=2;verticalAlign=middle;align=left;shadow=0;glass=0;comic=0;opacity=30;fontColor=#808080;strokeWidth=1;" vertex="1" parent="Ku8i4R_OYWpHUvpAigGd-0">
          <mxGeometry x="120" y="560" width="520" height="20" as="geometry" />
        </mxCell>
        <mxCell id="UJiXp5b0a_6Ro8LLWR9e-5" value="About" parent="_w6SPuIURd889Ef91Aiz-0" />
        <UserObject label="" tooltip="ABOUT&#xa;&#xa;The Base Module provides Functionality that is pretty much common across all mature applications, from Diagnostics, through information about the system (who paid for it/who built it, who is supplying it/the reseller, the system name), through to the current Tenancy and User, its Media and what people think of it. &#xa;&#xa;&#xa;&#xa;Secondary Modules build on top of the Core module, adding Business Domain Specific functionality (described later)." id="XVQZOD9igdeFpg9uraaE-0">
          <mxCell style="shape=image;html=1;verticalAlign=top;verticalLabelPosition=bottom;labelBackgroundColor=#ffffff;imageAspect=0;aspect=fixed;image=https://cdn1.iconfinder.com/data/icons/hawcons/32/699014-icon-28-information-128.png;shadow=0;dashed=0;fontFamily=Helvetica;fontSize=12;fontColor=#000000;align=center;strokeColor=#000000;fillColor=#505050;dashPattern=1 1;" vertex="1" parent="UJiXp5b0a_6Ro8LLWR9e-5">
            <mxGeometry x="660" y="540" width="20" height="20" as="geometry" />
          </mxCell>
        </UserObject>
      </root>
    </mxGraphModel>
  </diagram>
</mxfile>
